<svg xmlns="http://www.w3.org/2000/svg" viewBox="0 0 2825.2 331.5" class="login-banner"><g fill="#4E4E4F"><path d="M1445.8 175.6c0 19.8-10.7 39.1-37.3 39.1h-33.3v47.1h-16.6V136.5h49.9c26.6 0 37.3 19.6 37.3 39.1zm-16.5 0c0-11.6-6-23.8-20.9-23.8h-33.1v47.5h32.2c15.6 0 21.8-11.7 21.8-23.7zM1537.9 229.7H1484l-12.2 32.2h-17.3l47.7-125.4h17.5l47.7 125.4h-17.3l-12.2-32.2zm-5.4-14.6-21.5-56.8-21.5 56.8h43zM1627.3 214.6h-16.4v47.3h-16.6V136.5h47.1c27.3 0 37.9 19.7 37.9 39.1 0 18.2-9.1 36.4-32.8 38.8l33.3 47.5H1660l-32.7-47.3zm-16.4-15.1h26.2c18.4 0 25.7-9.6 25.7-23.8 0-14-8.2-23.8-20.9-23.8H1611v47.6zM1793.3 151.8h-38.2v110.1h-16.6V151.8h-38.2v-15.3h93v15.3zM1913.9 136.5v125.4h-16l-57.9-95.6v95.6h-16.6V136.5h16.4l57.5 95.2v-95.2h16.6zM2033.5 246.6v15.3h-75.7V136.5h73.9v15.3h-57.5v40.8h50.2V208h-50.2v38.6h59.3zM2102.3 214.6h-16.4v47.3h-16.6V136.5h47.1c27.3 0 37.9 19.7 37.9 39.1 0 18.2-9.1 36.4-32.8 38.8l33.3 47.5H2135l-32.7-47.3zm-16.4-15.1h26.2c18.4 0 25.7-9.6 25.7-23.8 0-14-8.2-23.8-20.9-23.8H2086v47.6zM2340.7 136.5v125.4h-16.6v-54.8h-61.5v54.8H2246V136.5h16.6V192h61.5v-55.5h16.6zM2375.8 199.5c0-35.7 27.7-64.4 63.3-64.4 35.9 0 63.7 28.8 63.7 64.4 0 35.5-27.8 64.2-63.7 64.2-35.6 0-63.3-28.7-63.3-64.2zm110.5 0c0-26.9-20.4-49.1-47.1-49.1-26.4 0-46.8 22.2-46.8 49.1 0 26.8 20.4 49 46.8 49 26.7-.1 47.1-22.3 47.1-49zM2665 261.9l-11.6-95.6-39.9 81.9h-14.4l-40.2-81.9-11.5 95.6h-16.2l15.3-125.4h14.9l44.8 93 44.6-93h14.9l15.5 125.4H2665zM2793.7 246.6v15.3H2718V136.5h73.9v15.3h-57.5v40.8h50.2V208h-50.2v38.6h59.3z"/></g><g fill="#7F187F"><path d="M485 100.2h-57.2c-5.2 0-9.4 4.2-9.4 9.4v12.8c0 3.3 2.9 6.1 6.3 6.1h9.4c.4 0 .6.2.7.4.1.1.3.5.2 1L412.6 197c-.1.4-.6.7-1.1.7-.6 0-.8-.3-.9-.7l-33.5-90.9c-1-2.3-3.1-3.8-5.4-3.9H351.6c-2.4.1-4.5 1.6-5.5 3.9L312.5 197c-.1.4-.3.7-.9.7-.5 0-1-.3-1.1-.7l-22.4-67.2c-.1-.5.1-.8.2-1 .1-.2.3-.4.7-.4h9.4c3.4 0 6.3-2.8 6.3-6.1v-12.8c0-5.2-4.2-9.4-9.4-9.4h-57.2c-2 0-3.9 1-5.1 2.6-1.1 1.6-1.5 3.5-.9 5.3.8 2.3 1.8 5.1 2.7 8 .9 2.8 1.9 5.6 2.8 8.1 1 2.7 3.2 4.3 5.8 4.3h9.6c.2 0 .7 0 1.1.8L298.6 260c.9 2.6 3.2 4.3 5.8 4.3h13.8c2.5 0 4.9-1.6 5.8-4 12.2-35.4 35.6-102.8 36.5-105.1.3-.8.9-.9 1.1-.9.2 0 .9.1 1.1.8.9 2.4 24.3 69.8 36.6 105.1.9 2.5 3.2 4.1 5.8 4.1h13.8c2.6 0 4.9-1.7 5.8-4.3l44.4-130.7c.4-.8.9-.8 1.1-.8h9.6c2.6 0 4.8-1.6 5.8-4.2.9-2.5 1.8-5.3 2.8-8.1 1-2.9 1.9-5.7 2.8-8.1.6-1.7.2-3.7-.9-5.3-1.4-1.7-3.3-2.6-5.3-2.6zM1154.6 237.9h-10.4c-1.6 0-2.9-1.4-2.9-2.9V106.1c0-2.4-2-4.1-4.3-4.1h-30.3c-1.2 0-2.6.6-3.3 1.6-1.6 2-9.4 11.8-12.6 15.7-2.2 2.8-.2 6.9 3.1 6.9h3.9c1.6 0 2.9 1.6 2.9 2.9v105.5c0 1-.6 2.2-.8 2.4-3.3 4.3-10.6 13.4-14.2 17.9-2.4 2.9-.4 7.1 3.1 7.1h53c1.2 0 2.4-.4 2.9-1.2 3.1-3.9 9.2-11.6 12.4-15.5 3-3.2 1-7.4-2.5-7.4z"/><circle cx="1120.8" cy="61.8" r="22.8"/><path d="M1321.4 115.3c0-2.2-1.2-4.3-4.1-4.3h-5.3v14h2v-5.1h1.8l3.5 5.1h2.4l-3.7-5.3c2.4-.3 3.4-2.4 3.4-4.4zm-7.4 2.5v-5.1h3.5c1.6 0 2.2 1.4 2.2 2.6 0 1.2-.6 2.6-2.4 2.6h-3.3z"/><path d="M1316.3 105.9c-6.7 0-12 5.3-12 12s5.3 12 12 12 12-5.3 12-12-5.5-12-12-12zm0 22.2c-5.7 0-10.2-4.5-10.2-10.2-.2-5.7 4.5-10.2 10.2-10.2 5.7 0 10.2 4.5 10.2 10.2 0 5.6-4.5 10.2-10.2 10.2zM634.3 238.5c-8.8.4-13.2-3.7-13.2-13.8v-72.3c0-31.6-26.5-51.7-56.4-51.7-46.4 0-63.1 22-65 46.6-.2 2.4 1.8 4.5 4.3 4.5h22.8c2.2 0 3.9-1.8 4.1-3.9 1.2-12.8 9.8-22.2 24.2-22.2 15.9 0 25.5 8.1 25.5 26.3v15.7h-8.3c-28.5 0-48.1 3.7-61.3 12s-19.8 23.6-19.8 41.5c0 13.2 4.5 24 13.6 32.6 9 8.6 19.7 12.4 33.6 12.4 8.3 0 16.1-1.8 24-5.5 6.9-3.1 13.6-7.1 20.2-13 1.4-1.4 3.7-1 4.7.8 6.5 11.4 13.6 15.1 27.1 15.1 12.2 0 18.1-11.4 23.4-18.3 2-2.7-.1-7-3.5-6.8zm-53.4-11.6h-.2c0 1-1.6 2.4-2.2 2.9-4.1 3.3-8.3 6.1-12.2 7.9-4.3 2-8.6 2.4-12.6 2.4-6.3 0-12.6-2.4-16.7-6.9s-6.3-10.2-6.3-16.9c0-9.4 3.5-15.7 10.6-20.4 7.1-4.7 18.7-6.9 32.6-6.9h6.9v37.9zM1069.1 238.5c-8.8.4-13.2-3.7-13.2-13.8v-72.3c0-31.6-26.5-51.7-56.4-51.7-46.4 0-63.1 22-65.1 46.6-.2 2.4 1.8 4.5 4.3 4.5h22.8c2.2 0 3.9-1.8 4.1-3.9 1.2-12.8 9.8-22.2 24.2-22.2 15.9 0 25.5 8.1 25.5 26.3v15.7h-8.3c-28.5 0-48.1 3.7-61.3 12S926 203.3 926 221.2c0 13.2 4.5 24 13.6 32.6 9 8.6 19.7 12.4 33.6 12.4 8.3 0 16.1-1.8 24-5.5 6.9-3.1 13.6-7.1 20.2-13 1.4-1.4 3.7-1 4.7.8 6.5 11.4 13.6 15.1 27.1 15.1 12.2 0 18.1-11.4 23.4-18.3 2-2.7-.2-7-3.5-6.8zm-53.5-11.6h-.2c0 1-1.6 2.4-2.2 2.9-4.1 3.3-8.3 6.1-12.2 7.9-4.3 2-8.6 2.4-12.6 2.4-6.3 0-12.6-2.4-16.7-6.9s-6.3-10.2-6.3-16.9c0-9.4 3.5-15.7 10.6-20.4 7.1-4.7 18.7-6.9 32.6-6.9h6.9v37.9zM1284.6 101.4c-2.1-1.1-7.4-1.6-12-1.6-7.5 0-13.3 1-18.4 3.2l-.4.2c-1.9.9-3.7 1.9-5.5 3.2-4.8 3-11.6 8-17.2 14.8 0 0-2.2 1.7-2.6-1.1v-14.3c0-1.1-.5-2.1-1.2-2.9-.8-.8-1.9-1.3-3.1-1.3h-30.5c-1.1 0-2.2.4-3.1 1.5 0 0-9.6 11.9-12.7 16-1.9 2.4-.7 6.9 3.3 6.9h3.8c1.6 0 3 1.3 3 3v106c0 .6-.2 1.7-.7 2.4-3 3.7-10.6 13.3-14.3 18-2.2 2.7-.2 6.9 3.3 6.9h65.6c2.3 0 4.2-1.9 4.2-4.2V242c0-2.3-1.9-4.2-4.2-4.2h-10.4c-1.7 0-3-1.4-3-3v-61.6c1.2-29.3 18.7-38.3 27.1-40.9.4-.1.8-.2 1.2-.4.1 0 .2-.1.3-.1 2.4-.6 4.8-.9 7-.9 10 0 13.7 1.5 19.2 2.9 2.3.6 4.2-1.9 4.2-4.2v-24c.1-2-1.4-3.4-2.9-4.2zM927.3 101.9h-47.6c-1.6 0-2.9-1.4-2.9-2.9V75.4c0-11.4 5.9-22.8 18.1-22.8 13.8 0 15.9 11.6 16.5 20.4.2 2.4 2.2 4.1 4.1 4.1h19.7c2.4 0 3.9-2.2 3.9-4.1-.5-29.4-19.2-42-49.2-42-18.3 0-30.3 5.7-39.3 16.7-9 11-13.6 23.2-13.6 45.2v5.9c0 2-1.8 2.9-2.9 2.9l-81.3.2c-2.4 0-4.3 1.8-4.3 4.1v16c0 2.4 2 4.3 4.3 4.3h8.7c2.2 0 3.5 2.4 2.8 4.1 0 0-22.4 52.1-31.4 72.9-1 2.4-4.5 2.4-5.5 0-9.2-21-31.8-72.9-31.8-72.9-.8-2 .6-4.1 2.8-4.1h6.1c2.4 0 4.3-2 4.3-4.3v-15.9c0-2.4-2-4.1-4.3-4.1H631c-3.3 0-5.1 3.5-3.7 6.3 2.2 3.9 7.1 13.2 8.5 15.9.4.8 1.8 2.2 3.5 2.2h14.2c1.2 0 2.2.6 2.8 1.8 0 0 52.3 117.4 54.2 121.5 2.3 6.7 1.6 11.3-.1 16.3-2.4 9.6-18.5 26.8-27.4 23.7-6.1-2.1-6.9-13.2-14.2-14.6-1.2-.2-2.5-.1-4 .5-1.3.5-13.2 15.8-15.8 18.4-1.2 1.2-1.5 4.1 0 5.7 6.5 6.7 17.4 15.7 33.2 16.3 19.4.8 38.5-1.8 56.1-35.4 0 0 56.3-137.6 63-152.4.6-1.2 2-1.6 2.8-1.6h29.7c1.6 0 2.9 1.4 2.9 2.9v105.7c0 .8-.2 1.6-.8 2.4-3.5 4.5-10.6 13.4-14.2 17.9-2.2 2.8-.4 6.9 3.3 6.9h66.4c2.4 0 4.3-2 4.3-4.3v-15.7c0-2.4-2-4.3-4.3-4.3H880c-1.6 0-2.9-1.4-2.9-2.9v-106c0-1.6 1.4-2.9 2.9-2.9h35.1c1.2 0 2.6-.6 3.3-1.6 2.9-3.9 9-11.8 12.2-15.9 2.2-2.7.2-6.9-3.3-6.9z"/></g><path fill="#82D170" d="m210.6 152.8-11.5-43.3c-.4-1.5-1.5-2.6-3-3L152.8 95c-1.4-.4-3 0-4 1.1l-29 29 60.7 60.6 29-29c1-.9 1.4-2.5 1.1-3.9z"/><path fill="#F8CF1C" d="m29.1 218.9 11.5 43.2c.4 1.5 1.5 2.6 3 3l43.3 11.5c1.4.4 3 0 4-1.1l29-29-60.6-60.6-29 29c-1.1 1-1.6 2.5-1.2 4z"/><path fill="#C6D636" d="m86.8 95.1-43.2 11.5c-1.5.4-2.6 1.5-3 3l-11.5 43.2c-.4 1.4 0 3 1.1 4l29 29 60.6-60.6-29-29c-1-1.1-2.5-1.5-4-1.1z"/><path fill="#D57DEA" d="m209.1 214.4-28.6-28.6-60.6 60.6 28.6 28.6c1.3 1.3 3.2 1.8 5 1.4l42.1-11.2c1.8-.5 3.2-1.9 3.7-3.7l11.2-42.1c.4-1.8-.1-3.7-1.4-5z"/><path fill="#7F187F" d="m119.8 125.2-60.6 60.6 60.7 60.7 60.6-60.7z"/></svg>